REM DIRINDEX 1\2\6,1\2\7,1\2\8,1\3\9,1\3\10,1\3\11,1\4\12,1\4\13,1\4\14,1\5\15,1\5\16,1\5\17,1\5\18
REM DIRNAME cjc019,folder01,folder02,folder03,folder04,folder05,folder06,folder07,folder08,folder09,folder10,folder11,folder12,folder13,folder14,folder15,folder16,folder17
TITLE ""
FILE "2Q_j_1334-1347.mp3" MP3
  TRACK 01 AUDIO
    TITLE "6:cjc019_0464"
    INDEX 01 00:00:00
  TRACK 02 AUDIO
    TITLE "0:"
    INDEX 01 00:01:05
  TRACK 03 AUDIO
    TITLE "7:cjc019_0465"
    INDEX 01 00:01:66
  TRACK 04 AUDIO
    TITLE "0:"
    INDEX 01 00:03:02
  TRACK 05 AUDIO
    TITLE "8:cjc019_0466"
    INDEX 01 00:03:51
  TRACK 06 AUDIO
    TITLE "0:"
    INDEX 01 00:06:31
  TRACK 07 AUDIO
    TITLE "6:cjc019_0467"
    INDEX 01 00:07:09
  TRACK 08 AUDIO
    TITLE "0:"
    INDEX 01 00:08:32
  TRACK 09 AUDIO
    TITLE "7:cjc019_0468"
    INDEX 01 00:09:16
  TRACK 10 AUDIO
    TITLE "0:"
    INDEX 01 00:10:23
  TRACK 11 AUDIO
    TITLE "8:cjc019_0469"
    INDEX 01 00:11:01
  TRACK 12 AUDIO
    TITLE "0:"
    INDEX 01 00:14:68
  TRACK 13 AUDIO
    TITLE "6:cjc019_0470"
    INDEX 01 00:15:50
  TRACK 14 AUDIO
    TITLE "0:"
    INDEX 01 00:16:59
  TRACK 15 AUDIO
    TITLE "7:cjc019_0471"
    INDEX 01 00:17:35
  TRACK 16 AUDIO
    TITLE "0:"
    INDEX 01 00:18:62
  TRACK 17 AUDIO
    TITLE "8:cjc019_0472"
    INDEX 01 00:19:36
  TRACK 18 AUDIO
    TITLE "0:"
    INDEX 01 00:21:74
  TRACK 19 AUDIO
    TITLE "6:cjc019_0473"
    INDEX 01 00:22:58
  TRACK 20 AUDIO
    TITLE "0:"
    INDEX 01 00:23:71
  TRACK 21 AUDIO
    TITLE "7:cjc019_0474"
    INDEX 01 00:24:53
  TRACK 22 AUDIO
    TITLE "0:"
    INDEX 01 00:25:56
  TRACK 23 AUDIO
    TITLE "8:cjc019_0475"
    INDEX 01 00:26:40
  TRACK 24 AUDIO
    TITLE "0:"
    INDEX 01 00:29:25
  TRACK 25 AUDIO
    TITLE "6:cjc019_0476"
    INDEX 01 00:30:20
  TRACK 26 AUDIO
    TITLE "0:"
    INDEX 01 00:31:65
  TRACK 27 AUDIO
    TITLE "7:cjc019_0477"
    INDEX 01 00:32:45
  TRACK 28 AUDIO
    TITLE "0:"
    INDEX 01 00:34:26
  TRACK 29 AUDIO
    TITLE "8:cjc019_0478"
    INDEX 01 00:35:08
  TRACK 30 AUDIO
    TITLE "0:"
    INDEX 01 00:39:37
  TRACK 31 AUDIO
    TITLE "6:cjc019_0479"
    INDEX 01 00:40:23
  TRACK 32 AUDIO
    TITLE "0:"
    INDEX 01 00:41:71
  TRACK 33 AUDIO
    TITLE "7:cjc019_0480"
    INDEX 01 00:42:53
  TRACK 34 AUDIO
    TITLE "0:"
    INDEX 01 00:44:22
  TRACK 35 AUDIO
    TITLE "8:cjc019_0481"
    INDEX 01 00:44:73
  TRACK 36 AUDIO
    TITLE "0:"
    INDEX 01 00:48:20
  TRACK 37 AUDIO
    TITLE "6:cjc019_0482"
    INDEX 01 00:49:00
  TRACK 38 AUDIO
    TITLE "0:"
    INDEX 01 00:50:17
  TRACK 39 AUDIO
    TITLE "7:cjc019_0483"
    INDEX 01 00:50:74
  TRACK 40 AUDIO
    TITLE "0:"
    INDEX 01 00:54:44
  TRACK 41 AUDIO
    TITLE "8:cjc019_0484"
    INDEX 01 00:55:30
  TRACK 42 AUDIO
    TITLE "0:"
    INDEX 01 00:58:67
  TRACK 43 AUDIO
    TITLE "6:cjc019_0485"
    INDEX 01 00:59:49
  TRACK 44 AUDIO
    TITLE "0:"
    INDEX 01 01:00:68
  TRACK 45 AUDIO
    TITLE "7:cjc019_0486"
    INDEX 01 01:01:50
  TRACK 46 AUDIO
    TITLE "0:"
    INDEX 01 01:05:44
  TRACK 47 AUDIO
    TITLE "8:cjc019_0487"
    INDEX 01 01:06:26
  TRACK 48 AUDIO
    TITLE "0:"
    INDEX 01 01:09:50
  TRACK 49 AUDIO
    TITLE "6:cjc019_0488"
    INDEX 01 01:10:28
  TRACK 50 AUDIO
    TITLE "0:"
    INDEX 01 01:12:05
  TRACK 51 AUDIO
    TITLE "7:cjc019_0489"
    INDEX 01 01:12:64
  TRACK 52 AUDIO
    TITLE "0:"
    INDEX 01 01:14:61
  TRACK 53 AUDIO
    TITLE "8:cjc019_0490"
    INDEX 01 01:15:37
  TRACK 54 AUDIO
    TITLE "0:"
    INDEX 01 01:19:64
  TRACK 55 AUDIO
    TITLE "6:cjc019_0491"
    INDEX 01 01:20:46
  TRACK 56 AUDIO
    TITLE "0:"
    INDEX 01 01:21:53
  TRACK 57 AUDIO
    TITLE "7:cjc019_0492"
    INDEX 01 01:22:41
  TRACK 58 AUDIO
    TITLE "0:"
    INDEX 01 01:24:67
  TRACK 59 AUDIO
    TITLE "8:cjc019_0493"
    INDEX 01 01:25:45
  TRACK 60 AUDIO
    TITLE "0:"
    INDEX 01 01:28:59
  TRACK 61 AUDIO
    TITLE "6:cjc019_0494"
    INDEX 01 01:29:37
  TRACK 62 AUDIO
    TITLE "0:"
    INDEX 01 01:30:66
  TRACK 63 AUDIO
    TITLE "7:cjc019_0495"
    INDEX 01 01:31:45
  TRACK 64 AUDIO
    TITLE "0:"
    INDEX 01 01:33:44
  TRACK 65 AUDIO
    TITLE "8:cjc019_0496"
    INDEX 01 01:34:30
  TRACK 66 AUDIO
    TITLE "0:"
    INDEX 01 01:37:44
  TRACK 67 AUDIO
    TITLE "6:cjc019_0497"
    INDEX 01 01:38:22
  TRACK 68 AUDIO
    TITLE "0:"
    INDEX 01 01:39:53
  TRACK 69 AUDIO
    TITLE "7:cjc019_0498"
    INDEX 01 01:40:36
  TRACK 70 AUDIO
    TITLE "0:"
    INDEX 01 01:43:68
  TRACK 71 AUDIO
    TITLE "8:cjc019_0499"
    INDEX 01 01:44:46
  TRACK 72 AUDIO
    TITLE "0:"
    INDEX 01 01:47:37
  TRACK 73 AUDIO
    TITLE "6:cjc019_0500"
    INDEX 01 01:48:16
  TRACK 74 AUDIO
    TITLE "0:"
    INDEX 01 01:49:41
  TRACK 75 AUDIO
    TITLE "7:cjc019_0501"
    INDEX 01 01:50:27
  TRACK 76 AUDIO
    TITLE "0:"
    INDEX 01 01:52:44
  TRACK 77 AUDIO
    TITLE "8:cjc019_0502"
    INDEX 01 01:53:23
  TRACK 78 AUDIO
    TITLE "0:"
    INDEX 01 01:57:41
  TRACK 79 AUDIO
    TITLE "6:cjc019_0503"
    INDEX 01 01:58:19
  TRACK 80 AUDIO
    TITLE "0:"
    INDEX 01 01:59:32
  TRACK 81 AUDIO
    TITLE "7:cjc019_0504"
    INDEX 01 02:00:24
  TRACK 82 AUDIO
    TITLE "0:"
    INDEX 01 02:02:05
  TRACK 83 AUDIO
    TITLE "8:cjc019_0505"
    INDEX 01 02:02:54
  TRACK 84 AUDIO
    TITLE "0:"
    INDEX 01 02:05:17
